<svg width="20" height="20" viewBox="0 0 20 20" fill="none" xmlns="http://www.w3.org/2000/svg">
<g clip-path="url(#clip0_437_7853)">
<mask id="mask0_437_7853" style="mask-type:alpha" maskUnits="userSpaceOnUse" x="0" y="0" width="20" height="20">
<rect width="20" height="20" fill="#D9D9D9"/>
</mask>
<g mask="url(#mask0_437_7853)">
<path d="M5 15.5V16C5 16.2778 4.90278 16.5139 4.70833 16.7083C4.51389 16.9028 4.27778 17 4 17C3.72222 17 3.48611 16.9028 3.29167 16.7083C3.09722 16.5139 3 16.2778 3 16V10.294C3 10.2009 3.01042 10.1078 3.03125 10.0146C3.05208 9.92153 3.07639 9.82639 3.10417 9.72917L4.62896 5.94708C4.73743 5.66292 4.92014 5.43403 5.17708 5.26042C5.43403 5.08681 5.71528 5 6.02083 5H13.9792C14.2847 5 14.566 5.08681 14.8229 5.26042C15.0799 5.43403 15.2626 5.66292 15.371 5.94708L16.8958 9.72917C16.9236 9.82639 16.9479 9.92153 16.9688 10.0146C16.9896 10.1078 17 10.2009 17 10.294V16C17 16.2778 16.9028 16.5139 16.7083 16.7083C16.5139 16.9028 16.2778 17 16 17C15.7222 17 15.4861 16.9028 15.2917 16.7083C15.0972 16.5139 15 16.2778 15 16V15.5H5ZM5.02083 9H14.9792L13.9792 6.5H6.02083L5.02083 9ZM6.5 13.25C6.77778 13.25 7.01389 13.1528 7.20833 12.9583C7.40278 12.7639 7.5 12.5278 7.5 12.25C7.5 11.9722 7.40278 11.7361 7.20833 11.5417C7.01389 11.3472 6.77778 11.25 6.5 11.25C6.22222 11.25 5.98611 11.3472 5.79167 11.5417C5.59722 11.7361 5.5 11.9722 5.5 12.25C5.5 12.5278 5.59722 12.7639 5.79167 12.9583C5.98611 13.1528 6.22222 13.25 6.5 13.25ZM13.5 13.25C13.7778 13.25 14.0139 13.1528 14.2083 12.9583C14.4028 12.7639 14.5 12.5278 14.5 12.25C14.5 11.9722 14.4028 11.7361 14.2083 11.5417C14.0139 11.3472 13.7778 11.25 13.5 11.25C13.2222 11.25 12.9861 11.3472 12.7917 11.5417C12.5972 11.7361 12.5 11.9722 12.5 12.25C12.5 12.5278 12.5972 12.7639 12.7917 12.9583C12.9861 13.1528 13.2222 13.25 13.5 13.25ZM4.5 14H15.5V10.5H4.5V14Z" fill="#BAC8DE"/>
</g>
</g>
<defs>
<clipPath id="clip0_437_7853">
<rect width="20" height="20" fill="white"/>
</clipPath>
</defs>
</svg>
